<svg width="1024" height="1024" viewBox="0 0 1024 1024" fill="none" xmlns="http://www.w3.org/2000/svg">
<rect x="12" y="12" width="1000" height="1000" rx="68" fill="#010C11"/>
<rect x="12" y="12" width="1000" height="1000" rx="68" stroke="url(#paint0_linear_42_15)" stroke-width="24"/>
<path d="M512 598.925C385.518 598.925 282.953 626.757 282.953 661.066C282.953 695.375 385.488 723.208 512 723.208C638.512 723.208 741.047 695.375 741.047 661.066C741.047 626.727 638.482 598.925 512 598.925ZM700.864 681.037C687.551 690.284 665.29 698.327 636.946 704.351C601.522 712.002 556.671 716.551 507.873 716.551C393.199 716.551 300.243 691.339 300.243 660.223C300.243 629.107 393.199 603.895 507.873 603.895C622.548 603.895 715.504 629.107 715.504 660.223C715.504 667.572 710.323 674.621 700.864 681.037Z" fill="url(#paint1_linear_42_15)"/>
<path d="M512 575.459C337.715 575.459 196.443 613.805 196.443 661.066C196.443 708.357 337.715 746.672 512 746.672C686.285 746.672 827.557 708.327 827.557 661.066C827.557 613.775 686.285 575.459 512 575.459ZM512 741.13C349.01 741.13 216.896 705.285 216.896 661.066C216.896 616.847 349.01 581.002 512 581.002C674.99 581.002 807.104 616.847 807.104 661.066C807.104 705.285 674.99 741.13 512 741.13Z" fill="url(#paint2_linear_42_15)"/>
<path d="M673.634 557.266C802.707 575.46 892.018 614.678 892.018 660.102C892.018 722.876 721.498 773.752 511.157 773.752C300.816 773.752 130.265 722.876 130.265 660.102C130.265 617.208 209.908 579.857 327.504 560.489C199.967 579.978 112.915 619.016 112.915 664.018C112.915 728.479 291.598 780.71 512 780.71C732.402 780.71 911.085 728.449 911.085 664.018C911.085 616.395 813.521 575.429 673.634 557.266Z" fill="url(#paint3_linear_42_15)"/>
<path fill-rule="evenodd" clip-rule="evenodd" d="M345.692 676.781C344.36 670.731 541.235 377.831 696.717 249.813C593.186 389.777 540.952 480.941 472.099 696.628C417.438 697.756 347.025 682.832 345.692 676.781Z" fill="url(#paint4_linear_42_15)"/>
<path fill-rule="evenodd" clip-rule="evenodd" d="M472.099 696.628C540.952 480.941 593.186 389.777 696.717 249.813C697.644 251.672 699.232 254.414 698.882 257.027C698.532 259.641 647.642 476.072 640.49 631.104C640.49 631.104 640.49 641.814 633.151 644.698C625.812 647.581 538.363 691.892 472.099 696.628Z" fill="url(#paint5_linear_42_15)"/>
<defs>
<linearGradient id="paint0_linear_42_15" x1="512" y1="0" x2="512" y2="1024" gradientUnits="userSpaceOnUse">
<stop stop-color="#45D6E9"/>
<stop offset="1" stop-color="#2DA5C3"/>
</linearGradient>
<linearGradient id="paint1_linear_42_15" x1="512" y1="598.925" x2="512" y2="723.208" gradientUnits="userSpaceOnUse">
<stop stop-color="#45D6E9"/>
<stop offset="1" stop-color="#39BDDE"/>
</linearGradient>
<linearGradient id="paint2_linear_42_15" x1="512" y1="575.459" x2="512" y2="746.672" gradientUnits="userSpaceOnUse">
<stop stop-color="#45D6E9"/>
<stop offset="1" stop-color="#39BDDE"/>
</linearGradient>
<linearGradient id="paint3_linear_42_15" x1="512" y1="557.266" x2="512" y2="780.71" gradientUnits="userSpaceOnUse">
<stop stop-color="#45D6E9"/>
<stop offset="1" stop-color="#39BDDE"/>
</linearGradient>
<linearGradient id="paint4_linear_42_15" x1="698.882" y1="249.813" x2="344.249" y2="672.227" gradientUnits="userSpaceOnUse">
<stop stop-color="white"/>
<stop offset="1" stop-color="#45D6E9"/>
</linearGradient>
<linearGradient id="paint5_linear_42_15" x1="698.932" y1="249.813" x2="344.308" y2="672.276" gradientUnits="userSpaceOnUse">
<stop stop-color="#45D6E9"/>
<stop offset="1" stop-color="#2D92C9"/>
</linearGradient>
</defs>
</svg>
