<svg width="1024" height="1024" viewBox="0 0 1024 1024" fill="none" xmlns="http://www.w3.org/2000/svg">
<path d="M35.771 590.448C36.7033 587.44 37.485 584.839 38.1303 582.633C40.9657 570.373 42.0025 569.397 38.1303 582.633C37.5353 585.206 36.8611 588.275 36.1364 591.814C79.8507 746.564 876.787 780.776 959.055 578.277C969.426 614.373 966.905 719.577 959.055 878.544C951.206 1037.51 80.7315 1082.68 38.5623 878.544C11.2197 746.182 27.3703 634.627 36.1364 591.814C36.0081 591.36 35.8863 590.905 35.771 590.448Z" fill="url(#paint0_linear_37_123)"/>
<path d="M498.5 516C351.888 516 233 548.92 233 589.5C233 630.08 351.853 663 498.5 663C645.146 663 764 630.08 764 589.5C764 548.884 645.112 516 498.5 516ZM717.422 613.121C701.989 624.059 676.187 633.572 643.331 640.697C602.27 649.746 550.28 655.126 493.716 655.126C360.792 655.126 253.042 625.306 253.042 588.502C253.042 551.699 360.792 521.879 493.716 521.879C626.641 521.879 734.391 551.699 734.391 588.502C734.391 597.196 728.386 605.532 717.422 613.121Z" fill="url(#paint1_linear_37_123)"/>
<path d="M499 489C296.855 489 133 534.24 133 590C133 645.795 296.855 691 499 691C701.146 691 865 645.76 865 590C865 534.205 701.146 489 499 489ZM499 684.461C309.956 684.461 156.722 642.17 156.722 590C156.722 537.83 309.956 495.539 499 495.539C688.044 495.539 841.278 537.83 841.278 590C841.278 642.17 688.044 684.461 499 684.461Z" fill="url(#paint2_linear_37_123)"/>
<path d="M686.52 467C836.264 488.496 939.879 534.833 939.879 588.501C939.879 662.669 742.05 722.779 498.022 722.779C253.993 722.779 56.1289 662.669 56.1289 588.501C56.1289 537.822 148.526 493.692 284.956 470.808C136.994 493.834 36 539.958 36 593.128C36 669.288 243.3 731 499 731C754.7 731 962 669.253 962 593.128C962 536.861 848.81 488.46 686.52 467Z" fill="url(#paint3_linear_37_123)"/>
<path fill-rule="evenodd" clip-rule="evenodd" d="M305.883 608.738C304.339 601.581 532.426 255.137 712.559 103.716C592.614 269.266 532.099 377.096 452.33 632.212C389.004 633.547 307.427 615.895 305.883 608.738Z" fill="url(#paint4_linear_37_123)"/>
<path fill-rule="evenodd" clip-rule="evenodd" d="M452.33 632.212C532.099 377.096 592.614 269.266 712.559 103.716C713.633 105.915 715.473 109.158 715.067 112.249C714.662 115.34 655.703 371.337 647.417 554.71C647.417 554.71 647.417 567.379 638.915 570.789C630.413 574.2 529.099 626.611 452.33 632.212Z" fill="url(#paint5_linear_37_123)"/>
<path d="M432.098 901.73C430.413 900.151 428.727 898.563 427.069 896.949C424.52 894.477 422.06 891.989 419.663 889.573C408.459 878.27 398.788 868.517 388.908 868.602C378.203 868.719 366.106 881.308 353.307 894.638L351.3 896.729C349.767 898.316 348.216 899.913 346.684 901.492C333.677 914.882 322.44 926.446 322.199 933.829C321.91 943.048 325.51 959.889 340.823 964.556C346.299 966.225 353.169 964.413 361.128 962.323C369.213 960.19 378.361 957.77 388.637 958.104C401.7 958.52 409.883 961.821 416.463 964.468C420.336 966.03 423.684 967.376 427.173 967.82C428.309 967.965 429.41 968.046 430.467 968.064C443.614 968.284 451.042 958.798 453.757 938.513C455.704 923.934 443.703 912.646 432.098 901.73Z" fill="white"/>
<path d="M343.833 833.902C348.867 838.979 354.684 841.712 360.535 841.809C361.745 841.83 362.957 841.733 364.152 841.529C371.182 840.32 377.083 835.354 380.755 827.555C384.305 820.021 385.366 810.69 383.74 801.276C382.123 791.855 378.006 783.414 372.144 777.508C366.07 771.382 358.855 768.671 351.825 769.88C344.794 771.089 338.894 776.046 335.223 783.846C331.672 791.37 330.611 800.711 332.237 810.124C333.854 819.546 337.98 827.987 343.833 833.902Z" fill="white"/>
<path d="M334.276 845.78C322.201 829.775 303.029 823.815 291.524 832.488C280.022 841.161 280.474 861.238 292.55 877.244C300.741 888.112 312.209 894.354 322.334 894.524C327.12 894.604 331.605 893.325 335.3 890.545C346.794 881.863 346.343 861.786 334.276 845.78Z" fill="white"/>
<path d="M417.183 843.294C418.184 843.472 419.177 843.57 420.172 843.586C433.336 843.807 446.002 830.402 449.242 812.054C450.905 802.642 449.888 793.303 446.383 785.758C442.74 777.934 436.872 772.942 429.847 771.704C415.663 769.189 401.275 783.211 397.78 802.954C396.116 812.366 397.134 821.705 400.638 829.25C404.29 837.065 410.158 842.056 417.183 843.294Z" fill="white"/>
<path d="M494.207 851.011C493.84 842.39 490.316 835.528 484.302 831.698C472.142 823.947 453.497 831.398 442.727 848.303C431.956 865.208 433.073 885.262 445.215 893.003C448.373 895.019 451.96 896.003 455.742 896.066C466.513 896.246 478.818 888.913 486.8 876.408C491.928 868.345 494.561 859.326 494.207 851.011Z" fill="white"/>
<defs>
<linearGradient id="paint0_linear_37_123" x1="432.959" y1="603.688" x2="189.29" y2="1222.32" gradientUnits="userSpaceOnUse">
<stop stop-color="#39BDDE"/>
<stop offset="1" stop-color="white"/>
</linearGradient>
<linearGradient id="paint1_linear_37_123" x1="498.5" y1="516" x2="498.5" y2="663" gradientUnits="userSpaceOnUse">
<stop stop-color="#45D6E9"/>
<stop offset="1" stop-color="#39BDDE"/>
</linearGradient>
<linearGradient id="paint2_linear_37_123" x1="499" y1="489" x2="499" y2="691" gradientUnits="userSpaceOnUse">
<stop stop-color="#45D6E9"/>
<stop offset="1" stop-color="#39BDDE"/>
</linearGradient>
<linearGradient id="paint3_linear_37_123" x1="499" y1="467" x2="499" y2="731" gradientUnits="userSpaceOnUse">
<stop stop-color="#45D6E9"/>
<stop offset="1" stop-color="#39BDDE"/>
</linearGradient>
<linearGradient id="paint4_linear_37_123" x1="715.067" y1="103.716" x2="294.184" y2="594.755" gradientUnits="userSpaceOnUse">
<stop stop-color="white"/>
<stop offset="1" stop-color="#45D6E9"/>
</linearGradient>
<linearGradient id="paint5_linear_37_123" x1="715.125" y1="103.716" x2="294.25" y2="594.814" gradientUnits="userSpaceOnUse">
<stop stop-color="#45D6E9"/>
<stop offset="1" stop-color="#2D92C9"/>
</linearGradient>
</defs>
</svg>
