<svg width="1024" height="1024" viewBox="0 0 1024 1024" fill="none" xmlns="http://www.w3.org/2000/svg">
<path fill-rule="evenodd" clip-rule="evenodd" d="M117.409 965.153C114.432 951.682 554.284 299.552 901.658 14.5242C670.352 326.149 553.652 529.121 399.823 1009.34C277.702 1011.85 120.386 978.625 117.409 965.153Z" fill="url(#paint0_linear_28_285)"/>
<path fill-rule="evenodd" clip-rule="evenodd" d="M399.823 1009.34C553.652 529.121 670.352 326.149 901.658 14.5242C903.729 18.6631 907.278 24.7672 906.495 30.586C905.713 36.4048 792.016 518.282 776.036 863.454C776.036 863.454 776.036 887.301 759.64 893.721C743.244 900.141 547.867 998.798 399.823 1009.34Z" fill="url(#paint1_linear_28_285)"/>
<defs>
<linearGradient id="paint0_linear_28_285" x1="906.495" y1="14.5241" x2="117.394" y2="957.697" gradientUnits="userSpaceOnUse">
<stop stop-color="white"/>
<stop offset="1" stop-color="#45D6E9"/>
</linearGradient>
<linearGradient id="paint1_linear_28_285" x1="906.606" y1="14.5241" x2="117.524" y2="957.806" gradientUnits="userSpaceOnUse">
<stop stop-color="#45D6E9"/>
<stop offset="1" stop-color="#2D92C9"/>
</linearGradient>
</defs>
</svg>
